<svg xmlns="http://www.w3.org/2000/svg" viewBox="0 0 512 512" role="img" aria-labelledby="title desc">
<title id="title">Beatrice Mae Johnson</title><desc id="desc">Cartoon portrait of an experienced Southern female senior safety instructor from Alabama.</desc>
<defs><linearGradient id="bg" x1="0" y1="0" x2="1" y2="1"><stop offset="0" stop-color="#fff8e8"/><stop offset="1" stop-color="#ffeec5"/></linearGradient><filter id="shadow" x="-20%" y="-20%" width="140%" height="140%"><feDropShadow dx="0" dy="12" stdDeviation="10" flood-color="#6d4a12" flood-opacity=".16"/></filter></defs>
<circle cx="256" cy="256" r="244" fill="url(#bg)"/>
<ellipse cx="256" cy="456" rx="166" ry="39" fill="#e8c779" opacity=".45"/>
<g filter="url(#shadow)">
  <path d="M119 445c14-72 73-120 137-120s123 48 137 120H119z" fill="#f4c22f"/>
  <path d="M174 363c32 31 132 31 164 0l28 82H147l27-82z" fill="#ffe26a"/>
  <path d="M206 319c2 35 26 58 50 58s48-23 50-58v-31H206v31z" fill="#b96d4e"/>
  <path d="M146 212c-20 4-27 24-18 45 8 19 25 28 39 20l-21-65z" fill="#c47b5a"/>
  <path d="M366 212c20 4 27 24 18 45-8 19-25 28-39 20l21-65z" fill="#c47b5a"/>
  <path d="M156 204c0-79 42-130 100-130s100 51 100 130c0 90-42 149-100 149s-100-59-100-149z" fill="#c98362"/>
  <path d="M181 204c15-12 44-13 61 2" fill="none" stroke="#2f1e20" stroke-width="9" stroke-linecap="round"/>
  <path d="M270 206c16-15 46-14 62-2" fill="none" stroke="#2f1e20" stroke-width="9" stroke-linecap="round"/>
  <ellipse cx="214" cy="231" rx="8" ry="11" fill="#2f1e20"/>
  <ellipse cx="298" cy="231" rx="8" ry="11" fill="#2f1e20"/>
  <path d="M255 239c-6 22-13 34-4 40 6 4 18 2 22-3" fill="none" stroke="#aa6048" stroke-width="7" stroke-linecap="round"/>
  <path d="M215 291c23 28 62 28 85 0" fill="#fff"/>
  <path d="M215 291c23 28 62 28 85 0" fill="none" stroke="#88453d" stroke-width="8" stroke-linecap="round"/>
  <path d="M178 225c-12-62 7-124 52-149 36-20 83-17 111 17 35 42 31 96 6 138-17-51-43-77-83-96-20 32-54 60-86 90z" fill="#2a2021"/>
  <path d="M179 94c26-30 77-43 123-24" fill="none" stroke="#3a2b2c" stroke-width="16" stroke-linecap="round" opacity=".86"/>
  <path d="M156 212c-14 43-13 84 7 121" fill="none" stroke="#2a2021" stroke-width="24" stroke-linecap="round"/>
  <path d="M356 212c14 43 13 84-7 121" fill="none" stroke="#2a2021" stroke-width="24" stroke-linecap="round"/>
  <ellipse cx="214" cy="232" rx="30" ry="22" fill="none" stroke="#e9d8c6" stroke-width="7"/>
  <ellipse cx="298" cy="232" rx="30" ry="22" fill="none" stroke="#e9d8c6" stroke-width="7"/>
  <path d="M244 232h24" stroke="#e9d8c6" stroke-width="7" stroke-linecap="round"/>
  <path d="M156 445v-88h60l40 42 40-42h60v88H156z" fill="#f4c22f"/>
  <path d="M216 357l40 42 40-42" fill="none" stroke="#ffffff" stroke-width="10" stroke-linecap="round" stroke-linejoin="round"/>
  <circle cx="320" cy="384" r="11" fill="#fff" opacity=".85"/>
</g>
</svg>
