<svg xmlns="http://www.w3.org/2000/svg" viewBox="0 0 512 512" role="img" aria-labelledby="title desc">
<title id="title">Emily Carter</title><desc id="desc">Cartoon portrait of a friendly American female senior safety instructor.</desc>
<defs><linearGradient id="bg" x1="0" y1="0" x2="1" y2="1"><stop offset="0" stop-color="#fff2f5"/><stop offset="1" stop-color="#ffe3eb"/></linearGradient><filter id="shadow" x="-20%" y="-20%" width="140%" height="140%"><feDropShadow dx="0" dy="12" stdDeviation="10" flood-color="#7c2440" flood-opacity=".16"/></filter></defs>
<circle cx="256" cy="256" r="244" fill="url(#bg)"/>
<ellipse cx="256" cy="456" rx="164" ry="38" fill="#edbfd0" opacity=".5"/>
<g filter="url(#shadow)">
  <path d="M118 445c15-69 73-115 138-115s123 46 138 115H118z" fill="#e85050"/>
  <path d="M170 363c32 31 140 31 173 0l24 82H145l25-82z" fill="#f4f6f7"/>
  <path d="M203 322c3 35 27 58 53 58s50-23 53-58v-30H203v30z" fill="#cc7b57"/>
  <path d="M143 207c-22 5-28 25-18 46 9 19 27 27 41 18l-23-64z" fill="#d89069"/>
  <path d="M369 207c22 5 28 25 18 46-9 19-27 27-41 18l23-64z" fill="#d89069"/>
  <path d="M154 201c0-82 44-135 102-135s102 53 102 135c0 91-43 151-102 151s-102-60-102-151z" fill="#d89069"/>
  <path d="M192 210c17-13 44-12 59 2" fill="none" stroke="#2a1212" stroke-width="9" stroke-linecap="round"/>
  <path d="M267 212c17-14 45-15 59-2" fill="none" stroke="#2a1212" stroke-width="9" stroke-linecap="round"/>
  <ellipse cx="222" cy="235" rx="8" ry="11" fill="#291515"/>
  <ellipse cx="293" cy="235" rx="8" ry="11" fill="#291515"/>
  <path d="M255 238c-6 22-13 34-4 39 6 4 18 2 22-3" fill="none" stroke="#b86649" stroke-width="7" stroke-linecap="round"/>
  <path d="M215 290c22 28 61 29 85 0" fill="#fff"/>
  <path d="M215 290c22 28 61 29 85 0" fill="none" stroke="#93423f" stroke-width="8" stroke-linecap="round"/>
  <path d="M151 226c-20-57-10-117 28-151 24-21 56-32 96-26 48 6 82 43 90 86 9 44-7 85-10 91-11-50-39-76-79-94-18 28-69 53-125 94z" fill="#2b1111"/>
  <path d="M171 130c23-49 73-82 126-63" fill="none" stroke="#4b1e1e" stroke-width="17" stroke-linecap="round" opacity=".85"/>
  <path d="M201 100c-18 14-26 34-20 57" fill="none" stroke="#6b2d2d" stroke-width="12" stroke-linecap="round" opacity=".7"/>
  <path d="M280 74c21 12 30 31 27 56" fill="none" stroke="#6b2d2d" stroke-width="12" stroke-linecap="round" opacity=".7"/>
  <circle cx="217" cy="88" r="10" fill="none" stroke="#6b2d2d" stroke-width="7" opacity=".75"/>
  <circle cx="255" cy="82" r="12" fill="none" stroke="#6b2d2d" stroke-width="7" opacity=".75"/>
  <path d="M155 445V355h53l48 42 48-42h53v90H155z" fill="#e85050"/>
  <path d="M207 355l49 42 49-42" fill="none" stroke="#f4f6f7" stroke-width="10" stroke-linecap="round" stroke-linejoin="round"/>
</g>
</svg>
