<svg xmlns="http://www.w3.org/2000/svg" viewBox="0 0 512 512" role="img" aria-labelledby="title desc">
<title id="title">Jake Miller</title><desc id="desc">Cartoon portrait of a young friendly American male senior safety instructor.</desc>
<defs>
  <linearGradient id="bg" x1="0" y1="0" x2="1" y2="1"><stop offset="0" stop-color="#eef7ff"/><stop offset="1" stop-color="#dceeff"/></linearGradient>
  <filter id="shadow" x="-20%" y="-20%" width="140%" height="140%"><feDropShadow dx="0" dy="12" stdDeviation="10" flood-color="#16456a" flood-opacity=".18"/></filter>
</defs>
<circle cx="256" cy="256" r="244" fill="url(#bg)"/>
<ellipse cx="256" cy="454" rx="168" ry="38" fill="#b7d6ed" opacity=".45"/>
<g filter="url(#shadow)">
  <path d="M119 445c13-73 72-121 137-121s124 48 137 121H119z" fill="#78c84a"/>
  <path d="M175 368c34 28 129 28 162 0l31 77H144l31-77z" fill="#9cdc66"/>
  <path d="M210 333c2 31 24 53 46 53s44-22 46-53v-28h-92v28z" fill="#f2b184"/>
  <path d="M204 343c28 31 78 31 104 0v-37H204v37z" fill="#dc926d" opacity=".35"/>
  <path d="M153 213c-20 2-28 21-21 43 6 20 22 31 37 25l-16-68z" fill="#f2b184"/>
  <path d="M359 213c20 2 28 21 21 43-6 20-22 31-37 25l16-68z" fill="#f2b184"/>
  <path d="M160 205c0-76 39-124 96-124s96 48 96 124c0 89-40 146-96 146s-96-57-96-146z" fill="#f6c096"/>
  <path d="M187 205c2-11 38-15 54 1" fill="none" stroke="#5b2d1f" stroke-width="10" stroke-linecap="round"/>
  <path d="M271 206c16-16 52-13 55-1" fill="none" stroke="#5b2d1f" stroke-width="10" stroke-linecap="round"/>
  <ellipse cx="216" cy="231" rx="9" ry="12" fill="#3a241d"/>
  <ellipse cx="296" cy="231" rx="9" ry="12" fill="#3a241d"/>
  <path d="M255 238c-7 24-14 36-5 42 7 5 20 2 24-3" fill="none" stroke="#ce805b" stroke-width="7" stroke-linecap="round"/>
  <path d="M211 292c24 31 68 31 91 0" fill="#fff"/>
  <path d="M211 292c24 31 68 31 91 0" fill="none" stroke="#9c503f" stroke-width="8" stroke-linecap="round"/>
  <path d="M198 313c22 24 91 27 117 0" fill="none" stroke="#5b2d1f" stroke-width="12" stroke-linecap="round" opacity=".92"/>
  <path d="M163 200c-11-64 17-116 70-130 31-8 66 0 86 23 39 10 53 48 38 96-36-15-61-36-74-69-29 30-78 46-120 80z" fill="#6b3527"/>
  <path d="M177 101c42-39 91-47 137-14" fill="none" stroke="#8b4b35" stroke-width="16" stroke-linecap="round" opacity=".85"/>
  <path d="M168 152c36-24 73-31 114-24" fill="none" stroke="#8b4b35" stroke-width="13" stroke-linecap="round" opacity=".7"/>
  <path d="M176 445V356h39l43 44 41-44h37v89H176z" fill="#99d957"/>
  <path d="M215 356l42 44 42-44" fill="none" stroke="#5ab02d" stroke-width="8" stroke-linecap="round" stroke-linejoin="round"/>
  <rect x="221" y="384" width="73" height="15" rx="7" fill="#f8d24a" opacity=".95"/>
  <rect x="221" y="407" width="73" height="15" rx="7" fill="#5cc1e5" opacity=".95"/>
</g>
</svg>
